<?xml version="1.0" encoding="utf-8"?>
<!-- Generator: Adobe Illustrator 20.1.0, SVG Export Plug-In . SVG Version: 6.00 Build 0)  -->
<svg version="1.1" id="alkali_x5F_fly_x5F_gcms_x5F_trace_x5F_clean_x5F_traceonly_xA0_Image_1_"
	 xmlns="http://www.w3.org/2000/svg" xmlns:xlink="http://www.w3.org/1999/xlink" x="0px" y="0px" viewBox="0 0 612 792"
	 style="enable-background:new 0 0 612 792;" xml:space="preserve">
<style type="text/css">
	.st0{fill:none;stroke:#000000;stroke-width:2;stroke-linecap:round;stroke-linejoin:round;stroke-miterlimit:10;}
</style>
<g>
	<g>
		<path class="st0" d="M338.2,288.5c-0.8,0.5-1.6,0.2-2.4,0.2c-19.5,0-39.1-0.4-58.6,0.1c-26.3,0.7-52.6,0-79,0.5
			c-8.3,0.2-16.6,0.2-25,0.3c-6.4,0.1-12.8-0.1-19.2-0.1c-6.3,0-12.6,0.2-19,0.2c-10.7,0-21.4-0.2-32.2,0.1
			c-8.2,0.2-16.3,0.6-24.5,0.9c-0.4,0-0.5,0.3-0.7,0.5"/>
		<path class="st0" d="M288.7,370.1c-0.8,0.3-1.7,0.5-2.6,0.5c-8,0-16,0.2-24,0.2c-25,0.1-50.1,0-75.1,0.1
			c-11.4,0-22.9-0.1-34.3,0.2c-10,0.3-20,0.3-30,0.4c-6.7,0.1-13.5,0.1-20.2,0.5c-5.4,0.3-10.9,0.2-16.3,0.9c-1,0.1-1.9,0.5-2.9,0.7
			"/>
		<path class="st0" d="M68.2,284.9c5.7,0.8,11.4,0.7,17,0.6c8.1-0.1,16.2,0.1,24.2,0.2c6.5,0.1,13-0.1,19.5,0.5
			c3.5,0.3,7-0.1,10.5-0.1c5,0,9.9,0.2,14.9,0.7c3.3,0.3,6.7,0.1,10.1,0.2c6.2,0.2,12.5-0.3,18.7,0.2c6.9,0.5,13.9,0.1,20.9,0.1
			s13.9-0.1,20.9,0c7.2,0.2,14.4,0.5,21.6,0.4c7.3,0,14.6-0.3,21.8-0.2c23.2,0.4,46.4,0.1,69.6,0.2c0.1,0,0.2,0.2,0.2,0.2"/>
		<path class="st0" d="M130.3,310.3c-2.8,0.2-5.6,0.2-8.4,0.1c-4.9-0.2-9.8-0.6-14.6,0.1c-3.6,0.5-7.2,0.5-10.8,0.5
			c-7,0.1-13.9,0.3-20.9,1c-2.2,0.2-4,1.4-6,2"/>
		<path class="st0" d="M426,288.2c-2.8-0.4-5.6-0.1-8.4-0.1c-8.7-0.3-17.4-0.1-26.2-0.1c-9.9,0-19.8,0.2-29.8,0.2"/>
		<path class="st0" d="M233,368.2c-3.4-0.6-6.9-0.4-10.3-0.4c-6.1,0.1-12.2,0.4-18.2,0c-8.3-0.6-16.5-0.2-24.7-0.3
			c-16-0.2-32,0.1-48-0.1c-6.4-0.1-12.8-0.2-19.2-0.3c-6.5-0.1-13,0-19.4-0.2c-6.7-0.3-13.4-0.1-20.2-0.4c-1.6-0.1-3.2-0.4-4.8-0.4"
			/>
		<path class="st0" d="M288.7,369.6c-0.8-0.5-1.6-0.2-2.4-0.2c-9.4-0.2-18.9,0.1-28.3-0.2c-4.8-0.1-9.6,0.3-14.4-0.1"/>
		<path class="st0" d="M255.6,368.2c-1.5,0-3,0-4.6,0c-4.7-0.1-9.3,0.4-13.9,0.9c-3,0.3-6.1-0.1-9.1-0.1c-11.8-0.1-23.5-0.1-35.3,0
			c-6.3,0-12.6,0.2-19,0.2c-6.4,0-12.8-0.2-19.2-0.1c-5.4,0-10.7,0.3-16.1,0.1c-6.3-0.3-12.6,0.1-19,0c-12.6-0.3-25.3-0.3-37.9,0
			c-4.3,0.1-8.7-0.5-13,0.1"/>
		<path class="st0" d="M399.6,369.8c-3.3,0-6.6-0.1-9.8-0.2c-8.9-0.1-17.8-0.1-26.6,0c-6.2,0.1-12.5,0.6-18.7,0.5
			c-2.4-0.1-4.8-0.2-7.2-0.2"/>
		<path class="st0" d="M134.6,317.5c-5,0-9.9-0.2-14.9,0c-12.2,0.5-24.3,0.3-36.5,0.5c-2.5,0-5.1,0.2-7.7,0.7
			c-2.4,0.5-4.8,1.1-6.5,3.1"/>
		<path class="st0" d="M157.7,446.2c-7-0.6-14.1,0.2-21.1-0.5c-5.3-0.5-10.6-0.2-15.8-0.5c-5.4-0.3-10.7-0.3-16.1-0.4
			c-8.4-0.2-16.8-0.6-25.2-0.9c-3.4-0.1-6.7-0.3-10.1-0.5"/>
		<path class="st0" d="M107.3,328.8c-4.6,0.6-9.3-0.2-13.9,0.3c-6.2,0.6-12.4,0.1-18.5,1.3c-2.1,0.4-3.9,1.1-5.3,2.7"/>
		<path class="st0" d="M105.8,310.1c-0.8-0.5-1.6-0.2-2.4-0.2c-9,0.1-18.1-0.3-27.1-0.5c-1.9-0.1-4,0.1-5.8-1.2"/>
		<path class="st0" d="M203.3,317c-15.5,0-31,0-46.6,0"/>
		<path class="st0" d="M73.7,306c-0.2,0-0.5-0.1-0.7,0c-4,1.3-4.9,2.9-4.1,7c0.4,1.8,1.7,2.6,3.4,2.6c3-0.1,6.1-0.1,9.1,0.3
			c3.5,0.5,7-0.1,10.6,0.1c6.1,0.3,12.2,0.1,18.2,0.1c5.5,0,11,0.1,16.6,0.4c4.7,0.3,9.5-0.4,14.2-0.1c5.1,0.3,10.3-0.6,15.4,0.4"/>
		<path class="st0" d="M106.8,391.2c-2.3,0.6-4.6,0.1-7,0.2c-3.5,0.1-7.1-0.2-10.6,0.1c-4.9,0.4-9.8,0.7-14.7,1.8
			c-1.1,0.3-1.9,0.7-2.6,1.5"/>
		<path class="st0" d="M135.4,446.4c-4.4,0.6-8.8,0.5-13.2,0.3c-7.4-0.3-14.7,0.4-22.1,0.6c-4.1,0.1-8.3-0.2-12.5,0.7
			c-4.2,0.9-8.5,1-12.5,2.6c-1.2,0.5-1.6,2.1-3.1,2"/>
		<path class="st0" d="M105.8,397.2c-4.5-0.3-9-0.7-13.4,0.5c-0.7,0.2-1.4,0.1-2.2,0c-4.6-0.2-9.1,0.3-13.7,0.8
			c-2.5,0.2-4.6,1.3-6.2,3.3"/>
		<path class="st0" d="M156.2,317.3c-5,0.5-10.1,0.1-15.1,0.2c-1.7,0-3.4,0-5,0"/>
		<path class="st0" d="M71.8,388.6c0.7,0,0.9,0.8,1.9,0.8c4.2,0,8.5,1.1,12.7,0.8c6.7-0.6,13.3,1,19.9,0.1c0.1,0,0.3,0.3,0.5,0.5"/>
		<path class="st0" d="M67.4,147.1c-0.5,4.6-0.2,9.3-0.2,13.9c-0.1,5-0.1,10.1,0,15.1c0.1,4.9,0.2,9.8,0.2,14.6
			c0,3.5-0.4,7-0.1,10.6c0.1,1.1,0.4,1.2,1.1,1.4c0.6,0.2,1.3,0.3,1.9,0.2c5.5-0.1,10.8,1.6,16.3,0.7"/>
		<path class="st0" d="M126,328.6c-6.1,0-12.2,0-18.2,0"/>
		<path class="st0" d="M67.2,127.4c-0.2,5.7,0.3,11.4,0.2,17c0,0.2-0.2,0.5-0.2,0.7"/>
		<path class="st0" d="M87.6,408c-2.4,0.2-4.8,0.5-7.2,0.7c-2.5,0.2-4.9,0.6-7.2,1.7c-3.5,1.6-3.3,1.6-3.4,5.5
			c-0.1,2.8-0.9,5.6-1.1,8.4c-0.2,3.1,0.3,3.7,3.4,4.1c0.6,0.1,1.2-0.3,1.7,0.2"/>
		<path class="st0" d="M74.2,386.6c-0.9,0.2-1.7,0.7-2.4,1.4c-0.8,0.8-1.7,0.5-2.7,0.2c-0.9,1.5-0.1,3.1-0.2,4.6
			c-0.2,4.6,0.6,9.3,0.3,13.9c-0.1,1.8-0.5,3.9,0.9,5.5"/>
		<path class="st0" d="M354.5,288.2c-5.3,0-10.6,0-15.8,0"/>
		<path class="st0" d="M70.1,502.6c-1.7,1.3-0.9,3.2-1.1,4.8c-0.3,2.4,0,5-0.3,7.4c-0.2,1.5,0.8,1.8,1.9,2.2"/>
		<path class="st0" d="M71,538.1c-1.9,0.9-1.8,2.7-1.6,4.3c0.2,1.2,0.3,2.4-0.1,3.6c-0.6,2,0.4,4,0.2,6c-0.3,5.2-0.5,10.4-0.3,15.6
			c0.3,7-0.3,14.1,0.2,21.1c0.4,6.3,0.1,12.6,0.1,19c0,4.6,0.5,9.3,0.4,13.9c-0.1,4.9,0.1,9.8,0,14.6c-0.1,3.3-0.4,6.7,0.7,10.1
			c0.7,2.3-0.1,4.8-0.3,7.2c-0.1,1.6-0.5,3.2,0,4.8"/>
		<path class="st0" d="M83,374.4c-1.1-1.3-2.4-0.1-3.6-0.3c-3.5-0.5-7.2-0.2-11-0.2c-0.6-2.7,0.1-5.5-0.4-8.2c-0.4-2,0.4-4,0.2-6
			c-0.1-1.1,0.6-1.7,1.4-2.2"/>
		<path class="st0" d="M85,466.1c-0.4,1.3-1.4,0.7-2.2,0.7c-2.8,0-5.5,0.4-8.2,1.2c-1.5,0.5-2.7,1.1-3.1,2.7
			c0.8,1.2,2.2,0.6,3.1,1.2"/>
		<path class="st0" d="M70.1,660.5c0,30.8-0.1,61.6,0.2,92.4"/>
		<path class="st0" d="M67.7,99.4c-0.7,0.8-0.4,1.7-0.5,2.6c-0.1,3.5,0.3,7.1-0.2,10.6"/>
		<path class="st0" d="M78,302.2c-3,0.5-6.3,0.2-9.1,2.3c1.3,1.1,2.7,0.8,3.8,1.6"/>
		<path class="st0" d="M84.7,383c-2.7,0.2-5.4,0.7-8.2,0.7c-2.6,0-4.9,2.2-7.7,1.2c-0.9-2.2-0.2-4.6-0.8-7.1c4.2-0.2,7.6-3,11.8-3"
			/>
		<path class="st0" d="M331.4,370.1c-6.7,0.3-13.4,0.4-20.2,0"/>
		<path class="st0" d="M331.4,369.6c-6.7-0.3-13.4-0.4-20.2,0"/>
		<path class="st0" d="M80.4,245.3c-4.1-0.3-8.2-0.6-12.2-1"/>
		<path class="st0" d="M85.7,299c-5.6,0.2-11,2-16.6,2.2c-0.5-2-0.2-3.9,0.2-5.5c0.5-1.7,2.6-2.5,4.4-2.6c1.3-0.1,2.6-0.3,3.8-0.8"
			/>
		<path class="st0" d="M69.1,395.3c3.3-0.4,6.4,0.7,9.6,0.9c4.9,0.3,9.9,0.1,14.9,0.1c0.7,0,1.4-0.3,1.9,0.5"/>
		<path class="st0" d="M75.6,428.9c-1.5-0.3-2.9,0.4-4.3,0.8c-1.1,0.3-2,1.2-1.8,3c0.2,1.8-0.5,3.7-0.9,5.5c-0.9,4.2,1.5,8,2,12
			c0.3,2.9,2.1,4.8,5.1,5.8c-2.6,1.4-4.8,3-5.2,5.5c-0.5,2.7-0.3,5.6,1.3,8.1"/>
		<path class="st0" d="M107.3,328.3c-3.5-0.7-7-0.2-10.6-0.4c-5-0.2-10.1-0.4-15.1-0.7c-3.1-0.2-6.2-0.1-9.4-0.5
			c-1.2-0.1-2.4-0.6-3.6-0.5"/>
		<path class="st0" d="M79,204c-1.4,0.8-3,0.8-4.6,0.7c-2.1-0.1-4.2,0.3-6.2,0.7"/>
		<path class="st0" d="M80.4,245.8c-3.1,0.9-6.3,0.5-9.4,1.2c-2.9,0.6-2.9,0.6-3.4,3.4c-0.2,1.1-0.1,2.2-0.2,3.4"/>
		<path class="st0" d="M79,380.6c-3.3,1.8-6.9,0.6-10.3,1.2"/>
		<path class="st0" d="M69.6,296.9c2.2,1.5,4.8,1,7.2,1.3c3.5,0.4,7.2,0,10.8,0.6"/>
		<path class="st0" d="M69.6,339.4c-1.4,2.2-1.2,4.8-1.4,7.2c-0.1,2.3-0.6,4.7,0.6,7c0.5,0.9-1.4,2.2,0.5,2.9"/>
		<path class="st0" d="M74.6,472.3c-2.3,0.8-4.3,2-4.6,4.8c-0.2,1.5,0.5,2.7,0.8,4.1c0.3,1,0,1.7-0.3,2.4c-1.1,2-1.4,4.1-1.4,6.3
			c0,3.5-0.4,7-0.2,10.6"/>
		<path class="st0" d="M71,464.9c3.2,0.7,6.6,0.5,9.9,0.8c2.7,0.2,5.4,0.7,8.1,0.4"/>
		<path class="st0" d="M67.7,203c0.7,3.6-0.5,7-0.5,10.6c0,0.5,0,1,0.3,1.4c0.7,1.2,0.8,2.2,0.3,3.6c-1.1,2.9,0,5.9,0,8.9
			c0,3.8,0.1,7.5-0.2,11.3c-0.2,3.1-0.7,6.1,0.5,9.1"/>
		<path class="st0" d="M67.9,232.6c1.7,0.3,3.5-0.7,5.1,0.9c0.5,0.5,2-0.1,3-0.2"/>
		<path class="st0" d="M73.7,518.6c-1.2,0.4-2.6,0.4-3.2,2.1c-0.6,1.8-1,3.5-0.8,5.3c0,0.1,0.5,0.2,0.7,0.2"/>
		<path class="st0" d="M71.3,405.8c4.7,1,9.4,1.6,14.2,1.4c2-0.1,3.9,1.6,6,0.5"/>
		<path class="st0" d="M69.1,291.4c3.7,0.6,7.6-0.2,11.3,0.7"/>
		<path class="st0" d="M76.1,227.5c-2,0.6-4.2-0.1-6.3,0.6c-0.6,0.2-1,0.7-1.7,0.8"/>
		<path class="st0" d="M76.8,350.9c-0.4,1.3-1.4,0.6-2.2,0.7c-2,0.2-4,0.4-5.5,1.9"/>
		<path class="st0" d="M116.9,390.7c-3.2,0.1-6.4-0.2-9.6,0.2"/>
		<path class="st0" d="M84.7,382.6c-2.4-0.5-4.9-0.1-7.2-1"/>
		<path class="st0" d="M79,268.8c-3.7,0.1-7.4,0.4-10.8,1.9"/>
		<path class="st0" d="M69.1,315.1c-0.6,0.9-0.2,1.9-0.2,2.9c-0.1,4.3-0.5,8.6-0.3,13c0.1,1.7,0.3,3.4,0.8,5
			c0.2,0.7-0.2,1.1-0.1,1.7"/>
		<path class="st0" d="M67.7,254.2c1.4,1.3,1.5,2.5,0.6,4.4c-1.3,2.7-1,5.9-0.8,8.8c0.2,2.2,0.1,4.3,0.2,6.5"/>
		<path class="st0" d="M69.6,275c-1.8,0.7-2.1,2.1-1.9,3.8c0.1,2.2-0.4,4.3,0,6.5c0.6,3.1,1,6.2,1.5,9.4"/>
		<path class="st0" d="M361.2,288c-2.1-0.4-4.2-0.4-6.2,0"/>
		<path class="st0" d="M87.1,245.5c-2.1,0-4.2,0.6-6.2,0"/>
		<path class="st0" d="M361.2,288.5c-2.1,0.4-4.2,0.4-6.2,0"/>
		<path class="st0" d="M68.6,349.4c2,0.6,4,0.8,6,0.7"/>
		<path class="st0" d="M71.8,527.5c-1.7,0.2-1.3,1.9-1.9,2.9c-0.4,0.7-0.4,1.6-0.5,2.4"/>
		<path class="st0" d="M75.4,268.8c0-0.4-0.3-0.8-0.7-0.7c-2.4,0.3-4.6-0.5-7-0.5"/>
		<path class="st0" d="M68.2,226.3c2.6,0.6,5.3,0.3,7.9,0.7"/>
		<path class="st0" d="M72.2,233.8c-1.3,0.4-2.8,0.3-4.1,1"/>
		<path class="st0" d="M72.5,377.5c1.2,1,2.6,1,4.1,1"/>
		<path class="st0" d="M297.4,369.8c-1.3,0-2.6,0-3.8,0"/>
		<path class="st0" d="M310.8,369.8c-3.2,0-6.4,0-9.6,0"/>
		<path class="st0" d="M237.8,368.2c-1.3-0.4-2.6-0.4-3.8,0"/>
		<path class="st0" d="M336.7,369.6c-1.3-0.4-2.6-0.4-3.8,0"/>
		<path class="st0" d="M336.7,370.1c-1.3,0.4-2.6,0.4-3.8,0"/>
		<path class="st0" d="M79.9,227.3c-1.1,0-2.2,0-3.4,0"/>
		<path class="st0" d="M293,369.6c-1-0.4-1.9-0.4-2.9,0"/>
		<path class="st0" d="M300.7,369.6c-1-0.4-1.9-0.4-2.9,0"/>
		<path class="st0" d="M73.4,301.2c0.7,1,1.9,0,2.6,0.7"/>
		<path class="st0" d="M69.6,534.5c0.6,0.7,0,2,1.2,2.4"/>
		<path class="st0" d="M289.2,369.8c1.3,0.5,2.5,0.8,3.8,0.2"/>
		<path class="st0" d="M87.6,382.8c-0.8,0-1.6,0-2.4,0"/>
		<path class="st0" d="M75.6,350.4c1.1,0.2,2.2,0.5,3.4,0.7"/>
		<path class="st0" d="M300.7,370.1c-1,0-1.9,1.1-2.9,0"/>
	</g>
</g>
</svg>
